<?xml version="1.0" encoding="utf-8"?>
<!-- Generator: Adobe Illustrator 17.0.0, SVG Export Plug-In . SVG Version: 6.00 Build 0)  -->
<svg version="1.2" baseProfile="tiny" id="Layer_1" xmlns="http://www.w3.org/2000/svg" xmlns:xlink="http://www.w3.org/1999/xlink"
	 x="0px" y="0px" width="800px" height="100px" viewBox="0 0 800 100" xml:space="preserve">
<path fill="#024A68" d="M800,62.342c-1.07,0.077-1.987,0.334-3.017,1.144c-1.208,0.95-1.957,2.954-2.484,4.329
	c-0.476,1.241-1.008,3.118-1.97,4.05c-0.803,0.778-2.611,0.907-3.203-0.217c-0.383-0.266-1.52-0.667-2.224-0.811
	c-0.005-0.019-0.099-0.377-0.128-0.484c0.213-0.124,0.375-0.299,0.486-0.524c-0.574-0.163-1.159-0.261-1.757-0.293
	c-0.122-0.613,0.577-1.104,0.92-1.352c-0.84-1.02-1.85-1.938-2.47-3.114c-1.246,0.399-2.361,2.756-2.986,3.916
	c-0.865,1.607-1.251,3.001-1.649,4.684c-0.443,1.874-1.474,3.734-2.521,5.344c-0.96,1.476-1.637,1.333-3.109,1.301
	c-0.607,0.287-1.405,0.622-2.013,0.199c0.14-0.169,0.308-0.224,0.502-0.166c-0.309-0.025-0.498-0.187-0.568-0.485
	c0.497-0.797-0.143-0.806-0.495-1.548c-0.488-0.165-0.646-0.435-0.477-0.811c0.012-0.167,0.023-0.334,0.035-0.501
	c-0.427-0.807-1.341-1.313-1.726-2.135c-1.053-2.251-1.136-5.147-2.466-7.248c-1.437-0.077-1.631,0.257-2.495,1.381
	c-0.963,1.253-1.636,1.589-3.183,1.18c-1.342-0.355-2.016-0.723-2.667-1.849c-0.416-0.721-0.589-1.873-1.557-1.998
	c0.344-0.543-0.005-0.782,0.145-1.219c-2.732-0.989-2.767,1.564-4.757,2.452c-1.135,0.506-2.238-0.22-3.212-0.749
	c-0.645-0.35-0.399-0.471-0.403-0.466c-1.964,0.162-2.407-1.49-3.216-2.538c-0.368-0.476-1.085-0.929-1.505-1.63
	c-0.54-0.9-0.897-2.34-1.644-3.067c-1.154-1.121-2.737-0.803-3.652,0.014c-0.637,0.569-1.211,1.152-1.862,1.689
	c-0.531,0.056-0.871,0.326-1.02,0.813c0.019,0.234,0.038,0.467,0.057,0.701c-0.3,0.534-0.728,0.93-1.285,1.185
	c1.238,1.099-0.996,3.057-1.439,4.127c-0.684,1.651-0.615,2.259-2.595,3.206c0.227,0.24,0.396,0.516,0.506,0.83
	c-0.233,0.364-0.553,0.581-0.958,0.651c0.969,0.717-1.586,2.296-2.271,2.55c-1.058,0.394-2.538,0.133-3.666,0.116
	c-1.06-1.072-2.411-1.465-2.448-3.232c-1.979-0.511-2.251,0.521-3.871,1.097c-0.852,0.303-1.991,0.27-2.732-0.333
	c-0.416-0.339-0.467-1.239-0.731-1.415c-3.025-2.02-3.561,3.154-4.37,4.585c-1.117,1.978-5.131,1.835-6.699,0.482
	c-1.007-0.87-1.161-2.29-1.986-3.366c-0.59-0.769-1.317-2.353-2.384-2.127c0.113-0.34-0.11-0.847-0.078-1.076
	c-0.194,0.088-0.509,0.011-0.72,0.087c0.059-0.55,0.044-0.247-0.323-0.736c-0.304-0.77-2.716,0.99-3.492,1.217
	c-1.012,0.297-1.89,0.136-2.911,0.185c0.259-0.084,0.364-0.264,0.317-0.537c-1.738-0.194-1.178-1.155-2.019-2.164
	c-0.431-0.517-1.88-1.288-2.167-1.368c-0.304,0.792-1.108,0.45-1.696,0.832c-0.447,0.125-0.811,0.366-1.095,0.721
	c-0.013,0.174,0.023,0.335,0.107,0.482c-0.915,1.042-1.754,2.695-2.855,3.514c-2.515,1.87-6.286-1.173-7.713-3.348
	c-1.147-1.747-1.399-2.772-3.799-1.682c-1.688,0.766-3.119,1.126-4,2.817c-0.615,1.181-1.047,2.226-1.834,3.366
	c-0.572,0.829-1.264,1.751-1.7,2.664c-0.673,1.409-0.776,3.326-2.453,3.867c-1.389,0.449-3.003,0.199-4.159-0.351
	c-0.588-0.279-1.127-0.735-1.708-1.03c-0.374-0.19-1.107-0.404-1.464-0.616c-2.518-1.49-4.98-3.463-6.531-6.032
	c-0.921-1.524-0.77-1.861-2.82-1.834c-1.135,0.015-2.959,0.35-4.03,0.03c-1.243-0.372-1.406-1.656-2.135-2.568
	c-0.831-1.039-1.893-1.412-3.166-1.479c-2.2-0.116-2.693,0.545-4.518,1.547c-0.92,0.505-2.373,0.835-3.495,0.368
	c-1.786-0.744-0.911-2.92-2.641-3.783c-1.155-0.576-2.656-0.829-3.865-0.632c-1.195,0.195-2.312,1.004-3.318,1.849
	c-0.432,0.363-1.116,0.785-1.531,1.148c-0.646,0.565-0.418,0.628-0.796,1.352c-0.48,0.919-1.091,1.47-1.69,2.299
	c-0.707,0.979-0.785,2.588-1.963,3.396c-0.883,0.605-3.101,0.843-4.215,0.503c-0.812-0.248-1.555-1.217-2.135-1.849
	c-1.113-1.214-1.382-1.651-3.166-1.529c-0.723,0.049-1.425-0.014-2.05,0.482c-0.688,0.546-0.346,0.708-0.763,1.368
	c-1.443,2.285-2.525,4.435-3.656,6.833c-0.407,0.864-1.068,1.245-1.566,1.995c-0.377,0.568-0.417,1.388-0.781,1.87
	c-0.76,1.007-1.965,1.497-3.185,1.497c-2.559,0-5.113-3.007-6.497-4.88c-0.748-1.013-1.045-1.999-1.67-3.166
	c-0.818-1.527-1.036-1.495-2.482-1.968c-2.042-0.668-3.95-4.266-6.055-2.877c-2.063,1.362-2.937,4.298-5.998,3.561
	c-1.16-0.279-2.937-1.204-3.833-2.034c-0.781-0.724-1.013-1.805-1.617-2.516c-1.544-1.818-4.215-2.289-6.516-2.166
	c-2.964,0.158-5.076,1.34-6.502,4c-1.503,2.804-2.033,4.554-5.498,4.68c-1.489,0.054-2.751,0.31-3.817-0.799
	c-0.547-0.569-0.929-1.3-1.501-1.88c-0.734-0.744-1.31-0.823-2.05-1.318c-2.2-1.473-3.083-4.304-6.112-2.847
	c-1.541,0.742-2.141,1.487-3.022,2.866c-0.642,1.005-1.693,1.568-2.366,2.463c-1.395,1.856-1.721,4.218-3.315,6.052
	c-1.441,1.657-3.018,3.178-5.135,3.479c-2.708,0.385-4.586-1.326-6.015-3.346c-0.813-1.149-1.639-1.9-2.164-3.17
	c-0.406-0.981-0.547-1.841-1.339-2.661c-1.297-1.341-1.55-0.419-3.164-0.135c-1.206,0.212-2.982,0.102-4.032-0.521
	c-1.923-1.141-2.765-5.758-5.835-4.047c-0.999,0.556-1.839,1.915-2.802,2.566c-1.155,0.781-2.591,0.832-4.013,0.648
	c-1.956-0.254-1.465-1.462-2.469-2.86c-0.559-0.779-1.437-1.354-2.185-1.817c-0.982-0.608-2.19-0.899-3.331-1.187
	c-1.286-0.325-2.628,0.105-3.886-0.262c-0.038-0.184-0.742,0.965-0.78,0.781c-0.602,0.011-1.456-0.174-2.034-0.035
	c-0.604,0.146-0.66,0.59-1.264,0.736c-0.879,0.212-2.156-0.033-3.071-0.035c-1.441,0.026-2.566,0.184-3.817,1.333
	c-1.023,0.941-2.183,2.34-3.847,2.05c-1.041-0.181-2.197-1.144-2.649-2.033c-0.473-0.93-0.295-2.516-1.45-3.213
	c-2.862-1.726-3.223,4.663-3.85,5.879c-0.643,1.246-1.834,2.131-3.366,2.012c-1.803-0.14-2.114-1.781-2.668-3.377
	c-0.189-0.544-0.56-1.391-0.687-1.948c0.024-0.469,0.049-0.938,0.073-1.407c-0.046-0.362-0.232-0.621-0.557-0.778
	c-0.316-1.315-0.45-2.862-1.464-3.865c-0.57-0.563-0.763-1.069-1.885-0.518c-0.216,0.106-0.838,0.813-0.98,1.015
	c-0.797,1.134-1.437,2.376-2.336,3.553c-1.11,1.454-1.601,2.961-2.333,4.63c-0.595,1.356-0.773,3.005-1.632,4.18
	c-0.57,0.78-2.05,2.711-2.834,3.055c-1.656,0.726-2.461-0.603-3.886-0.7c0.009-0.998-1.735-2.819-2.613-3.38
	c-1.434-0.916-1.626,0.286-3,0.694c-0.902,0.268-3.541,0.558-4.381,0.015c-0.93-0.601-1.35-2.304-1.97-3.215
	c-1.436-2.11-4.289-1.429-5.681,0.501c-1.163,1.612-1.38,4.057-3.802,4.214c-2.807,0.182-5.133-3.009-6.181-5.198
	c-0.39-0.815-0.862-1.779-1.651-2.349c-0.802-0.579-1.913-0.736-2.701-1.299c-1.031-0.737-1.296-1.778-1.966-2.701
	c-0.525-0.724-1.391-1.336-2.018-1.982c-2.441-2.521-3.005-0.096-4.8,1.53c-1.063,0.963-3.326,0.833-4.714,0.648
	c-1.316-0.176-1.882-0.897-2.503-2.161c-1.03-2.095-1.877-5.264-3.966-6.714c-1.742-1.209-5.677-0.312-7.048,1.346
	c-0.637,0.77-0.702,1.932-1.284,2.701c-0.271,0.358-0.838,0.567-1.054,0.948c-0.335,0.59,0.015,1.234-0.227,1.869
	c-0.522,1.374-2.335,2.589-3.072,3.98c-0.615,1.16-1.227,1.825-2,2.815c-0.678,0.868-0.909,2.28-2.133,2.584
	c-1.25,0.31-2.999-0.991-4.048-1.546c-2.505-1.325-4.543-3.389-7.17-4.682c-2.975-1.465-3.862,1.291-5.662,3.381
	c-1.783,2.071-3.357,4.615-6.338,3.985c-0.126-0.027-1.289-0.442-1.464-0.502c-0.642-0.217-1.375-0.289-1.885-0.816
	c-0.788-0.815-0.952-2.249-1.617-3.05c-3.328-4.007-8.667,5.157-9.683,7.346c-0.737,1.587-1.753,2.473-2.87,3.852
	c-0.461,0.569-0.812,0.967-1.277,1.464c-0.337,0.36-1.134,1.517-1.501,1.756c-0.892,0.58-3.058,0.102-3.884-0.388
	c-1.074-0.636-1.098-1.477-1.767-2.365c-0.538-0.714-1.221-0.964-1.717-1.799c-0.372-0.627-0.661-1.358-0.986-2.013
	c-0.6-1.211-1.269-2.279-2.133-3.32c-1.598-1.926-4.22-5.644-6.847-4.211c-1.46,0.797-2.181,3.09-3.871,2.91
	c-1.096-0.117-2.489-1.297-3.181-2.067c-1.68-1.865-3.483-2.532-5.466-3.981c-1.408-1.029-2.154-1.617-4.015-1.346
	c-1.597,0.232-2.022,1.163-2.667,2.68c-0.675,1.589-0.698,2.723-1.971,4.013c-1.435,1.454-2.222,1.566-4.047,0.651
	c-1.446-0.724-2.563-2.018-3.981-2.845c-1.181-0.689-1.919-1.332-2.834-2.338c-0.624-0.686-1.384-1.262-1.982-1.968
	c-0.74-0.873-1.137-1.893-2.002-2.677c-0.961-0.87-1.895-1.333-3.148-1.516c-0.861-0.126-2.571,0.173-3.203,0.794
	c-0.797,0.783-1.366,2.288-1.983,3.238c-0.74,1.139-1.682,2.11-2.348,3.314c-1.2,2.172-2.464,6.569-5.153,6.68
	c-1.493,0.062-2.071-0.433-3.294-0.717c-1.658-0.385-1.709,0.19-2.703-1.297c-2.135-3.191-3.157,1.156-6.015-0.098
	c-2.56-1.123-2.177-5.949-5.852-3.068c-2.162,1.695-2.18,4.359-3.615,6.351c-1.784,2.477-3.772,1.336-5.833-0.017
	c-4.105-2.694-6.304-8.343-8-12.521c-0.539-1.329-0.958-2.465-2.723-2.013c-1.094,0.281-2.073,1.174-3.296,1.398
	c-2.842,0.52-4.271-1.569-6.002-3.217c-0.571-0.543-1.318-0.828-1.834-1.449c-0.581-0.699-0.751-1.417-1.497-2.064
	c-1.095-0.95-1.799-1.293-2.502-2.619c-0.576-1.086-0.947-2.984-1.649-3.88c-0.859-1.097-1.918-0.792-3.18-0.8
	c-2.789-0.016-4.304,2.157-5.837,4.131c-0.837,1.077-1.767,2.643-2.363,3.867c-0.567,1.165-0.51,2.233-1.137,3.333
	c-0.793,1.391-1.901,2.674-2.68,4.032c-0.733,1.278-1.118,1.319-2.654,1.299c-1.157-0.015-2.94,0.367-4.03,0.034
	c-0.88-0.269-1.464-1.245-2.135-1.867c-1.21-1.121-2.281-2.094-3.346-3.366c-0.454-0.541-1.347-1.675-1.952-2
	c-2.227-1.195-5.223,0.867-6.699,2.369c-1.816,1.848-2.726,3.846-3.983,6.001c-0.983,1.685-2.51,3.937-4.503,4.179
	c-1.169,0.142-3.604,0.356-4.714,0.017c-0.968-0.296-1.455-1.311-2.098-2.015c-1.715-1.877-3.438-3.689-5.835-1.884
	c-1.292,0.973-2.757,2.905-4.553,2.414c-1.335-0.365-2.392-2.485-3.482-3.261c-2.318-1.65-4.262,0.026-5.167,2.198
	c-0.903,2.167-0.776,6.262-4.164,5.897c-1.081-0.117-2.215-1.081-3.17-1.547c-0.867-0.423-1.675-0.874-2.331-1.654
	c-1.452-1.727-2.178-4.219-3.336-6.161c-1.307-2.192-2.256-4.627-3.668-6.702c-1.433-2.106-4.518-1.822-6,0.147
	c-1.844,2.45-2.655,4.559-6.165,4.534c-0.712-0.005-1.891,0.285-2.518-0.111c-0.711-0.449-0.385-1.125-1.482-1.285
	c-1.347-0.197-1.59,0.921-2.484,1.581c-1.956,1.444-3.571,2.151-6.198,1.833c-2.729-0.331-2.604-3.399-4.784-4.549
	c-2.488-1.313-4.574,0.656-6.032,2.353c-0.807,0.939-1.571,1.996-2.337,2.978c-0.723,0.927-1.013,2.166-1.647,3.054
	c-1.819,2.549-3.221,0.717-5.333,0.297c-0.916-0.182-3.586-0.621-4.402-0.032c-0.623,0.45-0.759,2.393-0.929,3.071
	c-0.239,0.951-0.726,2.476-1.187,3.514c-0.406,0.911-0.799,1.736-1.503,2.462c-0.856,0.884-2.598,1.313-3.862,0.884
	c-0.889-0.302-1.576-1.861-1.985-2.695c-0.47-0.959-0.583-2.231-0.632-3.355c-0.061-1.381-0.674-2.725-1.185-4.013
	c-0.728-1.836-2.747-7.033-5.351-4.514c-1.78,1.722-3.399,5.281-5.981,3.028c-1.461-1.274-2.149-3.908-4.135-4.531
	c-2.885-0.906-4.015,1.833-4.865,3.881c-0.487,1.175-0.907,2.11-1.316,3.336c-0.252,0.755-1.185,2.282-1.82,2.847
	c-2.064,1.837-4.541-0.099-5.217-2.183c-0.854-2.634-1.523-5.168-2.167-7.849c-0.323-1.344-0.47-2.629-0.63-4.015
	c-0.134-1.166-0.688-2.182-1.168-3.318c-0.417-0.987-1.293-2.66-2.316-3.2c-0.97-0.513-2.78-0.115-3.865-0.131
	C2.712,54.322,1.184,54.538,0,55.13V100h800V62.342z"/>
</svg>
