<?xml version="1.0" encoding="utf-8"?>
<!-- Generator: Adobe Illustrator 17.0.0, SVG Export Plug-In . SVG Version: 6.00 Build 0)  -->
<svg version="1.2" baseProfile="tiny" id="Layer_1" xmlns="http://www.w3.org/2000/svg" xmlns:xlink="http://www.w3.org/1999/xlink"
	 x="0px" y="0px" width="800px" height="100px" viewBox="0 0 800 100" xml:space="preserve">
<path fill="#D2D3D4" d="M324.341,7.799c-0.02,0.325-0.159,0.564-0.415,0.717c5.587-0.534,11.451-0.05,17.066-0.05
	c3.116,0,6.232,0,9.349,0c2.518,0,5.42-0.373,7.852,0.148c0.73,0.156,1.147,0.544,2.148,0.518c0.694-0.017,1.195,0.007,1.852,0.148
	c0.451,0.097,0.829,0.45,1.466,0.534c0.632,0.083,1.375-0.018,2.016-0.016c3.172,0.015,5.964-1.358,9.183-1.331
	c5.827,0.049,11.657-0.002,17.484-0.002c2.914,0,6.513,0.577,9.349,0.034c1.476-0.282,2.406-0.712,3.985-0.701
	c1.555,0.011,3.111,0,4.667,0c5.996,0,12.006,0.122,18-0.002c4.893-0.102,9.882-1.873,14.847-2.013
	c4.18-0.118,8.157-1.213,12.322-1.333c2.501-0.072,5.026-0.005,7.529,0.015c1.606,0.013,2.586-0.413,4.101-0.701
	c3.388-0.644,7.694,0.034,11.168,0.034c4.294,0,9.07,0.604,13.331,0.034c3.599-0.481,7.225-1.395,10.884-1.365
	c3.716,0.03,7.432-0.029,11.148-0.002c1.578,0.011,2.528-0.442,4.002-0.701c1.224-0.215,2.748,0.034,4,0.034
	c2.873,0,5.746,0,8.619,0c4.352,0,9.042-0.52,13.362-0.034c1.161,0.13,2.155,0.646,3.333,0.716c0.889,0.053,1.795-0.067,2.686-0.031
	c1.632,0.066,3.006,0.621,4.635,0.68c3.195,0.115,6.342-0.277,9.368,0.521c2.286,0.603,4.968-0.011,7.316,0.114
	c1.595,0.085,3.085,0.647,4.68,0.736c1.508,0.084,3.05-0.208,4.553-0.069c1.136,0.105,2.142,0.619,3.286,0.735
	c1.117,0.114,2.357-0.035,3.479-0.034c2.401,0.002,4.802,0,7.203,0c7.772,0,15.544,0,23.316,0c4.499,0,8.998,0,13.497,0
	c2.671,0,5.908,0.508,8.521,0.034c1.046-0.189,1.74-0.663,2.815-0.716c0.638-0.032,1.373,0.161,2,0.05
	c0.741-0.131,1.259-0.605,2-0.736c0.627-0.111,1.362,0.081,2,0.05c1.69-0.084,3.054-0.694,4.852-0.68
	c1.77,0.014,3.542-0.002,5.312-0.002c6.168,0,12.335,0,18.503,0c1.462,0,3.236-0.286,4.667-0.034
	c1.518,0.267,2.49,0.712,4.114,0.701c3.516-0.024,7.034,0,10.55,0c2.779,0,5.889-0.403,8.635-0.034
	c1.676,0.225,2.976,0.716,4.701,0.701c1.333-0.012,2.667-0.001,4,0c0.83,0.001,1.856-0.177,2.667-0.034
	c0.741,0.13,1.259,0.605,2,0.735c1.224,0.215,2.748-0.035,4-0.034c2.819,0.002,5.21,0.664,8,0.667
	c5.798,0.006,11.193,0.402,16.632,1.852c1.118,0.298,2.229,0.083,3.349,0.297c0.942,0.18,1.697,0.439,2.686,0.518
	c0.983,0.079,1.73,0.342,2.667,0.518c0.871,0.164,1.926-0.108,2.736,0.112c1.062,0.288,2.096,0.934,3.264,1.222
	c1.339,0.33,2.643,0.508,4,0.834c1.56,0.375,3.087,0.345,4.667,0.613c0.742,0.126,1.258,0.61,2,0.736c0.65,0.11,1.349-0.177,2-0.069
	c1.374,0.227,2.624,1.182,3.998,1.405c1.223,0.198,2.191,0.203,3.32,0.611c4.975,1.799,10.308,3.021,15.201,5.501
	c4.064,2.059,8.811,5.782,9.998,10.518c0.73,2.916-0.162,5.973-1.019,8.667c-0.883,2.779-1.728,4.405-3.514,6.684
	c-0.862,1.1-1.495,1.946-2.652,2.647c-0.573,0.347-2.005,1.366-2.63,1.402c-2.607,0.15-3.939-5.22-6.215-2.765
	c-1.729,1.865-1.313,4.774-2.325,6.86c-0.354,0.729-0.004,0.856-0.776,1.22c-0.315,0.148-1.627,0.067-1.936-0.164
	c-0.768-0.573-0.661-2.426-0.768-3.233c-0.185-1.4,0.019-1.106-1.336-1.329c-0.51-0.084-1.576-0.151-2.045,0.112
	c-1.242,0.695-1.331,2.699-1.301,3.899c0.036,1.43-0.393,2.661-0.667,4.015c-0.105,0.52-0.431,1.082-0.521,1.466
	c-0.126,0.542,0.047,1.427-0.244,1.901c-0.655,1.065-3.514,0.998-3.949-0.002c-0.384-0.882,0.047-3.048,0.047-4.048
	c0-2.749,0.158-5.41-0.518-8c-0.339-1.296,0.39-3.007-0.95-3.865c-1.387-0.888-2.502,0.064-3.047,1.2
	c-0.519,1.082-0.671,2.041-0.963,3.185c-0.059,0.229-0.43,1.203-0.521,1.479c-0.244,0.742,0.149,0.907-0.471,1.529
	c-0.837,0.84-3.315,0.768-4.243,0c-0.742-0.614-0.887-1.89-1.288-2.826c-0.768-1.792-0.616-2.044-2.664-2.032
	c-1.484,0.008-1.972-0.025-2.664,1.297c-1.029,1.965-0.763,6.622-3.301,7.413c-0.875,0.272-2.919,0.125-3.564-0.518
	c-0.935-0.934-0.253-2.344-0.604-3.529c-0.942-3.185-2.845-3.979-5.383-2.183c-1.233,0.873-0.969,1.541-1.133,2.867
	c-0.157,1.278-0.625,1.932-0.669,3.318c-0.117,3.709-2.967,3.823-5.181,1.828c-0.867-0.781-1.717-2.029-2.037-3.161
	c-0.413-1.463-0.28-1.688-1.296-2.836c-1.277-1.442-1.871-6.488-4.202-5.878c-1.445,0.378-1.23,1.54-1.281,2.714
	c-0.054,1.219-0.478,2.686-0.833,3.847c-0.83,2.716-4.12,1.313-5.35-0.499c-0.879-1.295-0.877-1.827-2.486-2.032
	c-1.101-0.14-2.532-0.221-3.216,0.815c-0.156,0.237-0.606,1.791-0.651,2.016c-0.132,0.657-0.144,1.163-0.148,1.854
	c-0.009,1.288-0.181,2.872-0.798,4.032c-0.305,0.573-2.072,2.245-2.686,2.495c-1.393,0.567-2.273-0.272-3.329-1.015
	c-1.347-0.948-2.235-2.063-3.02-3.498c-0.348-0.637-0.757-1.285-0.869-2.013c-0.078-0.506,0.359-1.47-0.066-1.902
	c-0.456-0.463-3.259-0.193-3.915-0.116c-1.731,0.203-1.529,0.58-1.984,2.015c-0.292,0.921-0.4,1.095-0.849,1.966
	c-0.387,0.75-0.214,1.38-0.467,2.066c-0.285,0.773-1.174,1.745-1.985,2c-2.707,0.853-4.371-1.323-5.199-3.383
	c-0.412-1.026-0.577-2.775-1.304-3.511c-0.661-0.67-2.66-0.763-3.561-0.503c-1.41,0.407-1.105,1.431-1.45,2.553
	c-0.333,1.087-0.884,2.289-1.166,3.479c-0.581,2.453-1.621,5.201-2.67,7.299c-0.606,1.212-1.459,2.183-2.183,3.346
	c-0.887,1.425-1.358,1.617-3.182,1.37c-2.643-0.358-3.534-2.24-5.301-4.032c-0.912-0.925-2.023-1.578-3.35-1.346
	c-0.784,0.137-1.188,0.526-1.849,0.882c-0.218,0.117-1.192,0.457-1.336,0.595c-1.954,1.88-1.561,4.861-3.317,6.72
	c-0.859,0.909-1.375,2.17-2.868,1.88c-0.86-0.167-2.405-1.03-3.146-1.55c-1.139-0.799-2.051-1.923-2.669-3.164
	c-0.393-0.788-1.074-2.027-1.333-2.815c-0.184-0.558,0.054-1.207-0.262-1.703c-0.258-0.404-1.052-0.871-1.402-1.318
	c-0.7-0.893-1.358-1.864-1.982-2.811c-0.74-1.123-0.927-2.814-1.788-3.546c-1.175-1-2.841-0.328-3.579,0.826
	c-1.411,2.205-0.674,4.641-2.288,6.718c-1.743,2.243-4.906,1.421-6.345-0.667c-0.759-1.1-1.179-2.127-1.669-3.368
	c-0.355-0.898-1.103-1.951-1.349-2.8c-0.418-1.444-0.353-3.102-0.798-4.55c-0.177-0.577-0.584-0.675-0.72-1.264
	c-0.15-0.646,0.211-1.389,0.084-2.034c-0.145-0.738-1.37-2.906-2.198-3.214c-0.958-0.355-2.042,0.605-2.534,1.198
	c-1.293,1.558-0.818,6.376-3.286,6.564c-1.183,0.09-2.61-1.136-3.215-2.048c-0.608-0.917-0.804-1.986-0.931-3.053
	c-1.241-0.032-1.845-1.247-3.254-0.81c-1.364,0.423-1.329,1.46-1.299,2.696c0.056,2.292-1.388,4.713-3.466,5.867
	c-1.112,0.618-2.373,0.062-3.198-0.684c-0.306-0.277-1.034-0.943-1.2-1.333c-0.284-0.665,0.081-1.243-0.101-1.884
	c-0.308-1.086-1.631-1.745-2.736-1.344c-0.863,0.314-1.566,1.811-1.833,2.712c-0.603,2.037,0.736,6.529-2.101,7.366
	c-0.952,0.281-2.958,0.075-3.881-0.183c-1.165-0.325-1.368-1.13-1.968-2.034c-0.446-0.673-1.042-0.962-1.368-1.799
	c-0.26-0.668-0.143-1.465-0.617-2.063c-0.854-1.077-2.447-0.868-3.396,0.035c-1.06,1.008-0.63,2.062-0.95,3.346
	c-0.326,1.311-0.997,2.648-1.222,3.998c-0.231,1.387-0.141,2.347-1.098,3.518c-0.888,1.085-2.238,1.231-3.531,1.164
	c-1.148-0.06-2.823-0.387-3.529-1.297c-0.652-0.839-0.905-3.005-1.156-4.05c-0.377-1.562-0.351-3.083-0.613-4.667
	c-0.227-1.374-1.187-2.625-1.404-4c-0.214-1.351-0.291-2.668-0.611-4c-0.173-0.717-0.601-1.27-0.723-1.998
	c-0.112-0.671,0.173-1.185-0.098-1.852c-0.416-1.022-2.736-2.44-3.764-1.383c-0.618,0.636,0.019,3.059-0.085,3.915
	c-0.149,1.224-0.639,2.377-2,2.701c-0.767,0.182-3.314,0.244-4.047-0.002c-2.201-0.74-1.333-7.94-5.349-6.093
	c-1.079,0.496-0.64,2.239-0.621,3.376c0.018,1.12-0.142,2.266-0.813,3.187c-0.906,1.246-1.711,1.499-3.187,1.479
	c-0.925-0.013-3.131,0.442-3.881-0.114c-0.332-0.246-1.054-2.259-1.284-2.717c-0.428-0.854-0.608-2.181-1.45-2.55
	c-1.365-0.6-3.433,0.342-4.23,1.367c-0.8,1.028-1.137,2.168-1.637,3.35c-0.495,1.173-1.15,2.207-1.664,3.318
	c-0.547,1.182-1.135,2.349-1.982,3.33c-1.899,2.199-4.507,2.801-7.039,1.202c-1.308-0.826-2.006-1.803-2.663-3.18
	c-0.307-0.643-0.693-1.231-1.017-1.852c-0.061-0.116-0.566-1.343-0.6-1.368c-0.477-0.355-2-0.218-2.564-0.129
	c-1.198,0.189-0.653-0.106-1.333,0.667c-0.768,0.871-0.785,2.351-1.323,3.379c-0.895,1.712-3.861,3.552-5.865,2.502
	c-1.739-0.911-1.883-6.538-4.683-4.417c-0.454,0.344-1.108,2.648-1.283,3.219c-0.406,1.324-1.019,2.675-1.349,3.998
	c-0.615,2.468-0.066,5.035-1.632,7.185c-1.699,2.332-3.322,1.306-5.351,0.314c-2.396-1.171-3.405-2.997-3.982-5.499
	c-0.291-1.26-1.04-2.076-1.2-3.318c-0.167-1.292,0.233-2.61-0.135-3.865c-0.266-0.908-1.432-2.809-2.498-2.899
	c-0.92-0.077-2.345,1.206-3.187,1.579c-2.88,1.276-2.644-1.261-3.663-3.331c-0.645-1.311-3.554-4.29-5.034-2.033
	c-0.301,0.458-0.144,1.194-0.279,1.721c-0.132,0.512-0.443,0.763-0.536,1.464c-0.181,1.363,0.284,2.364-0.471,3.529
	c-1.316,2.031-5.696,1.611-7.027-0.148c-1.667-2.202-1.823-4.751-1.82-7.366c0.31,1.125-0.895,1.397-0.667,2.434
	c0.228-1.037,0.347-0.6,0.333-1.768c-0.028-2.294,0.311-4.923-1.226-6.774c-1.758-2.118-3.495-1.012-4.794,0.778
	c-1.664,2.292-0.204,4.541-0.932,7.045c-0.51,1.753-3.245,2.98-4.874,1.778c-0.102-0.075-1.173-2.526-1.226-2.774
	c-0.288-1.35,0.266-2.667-0.148-4.052c-0.492-1.647-2.206-5.491-3.749-6.068c-5.791-2.163-1.615,8.67-3.226,10.894
	c-0.929,1.282-5.453,1.656-6.874,1.222c-2.043-0.623-2.378-2.444-3.174-4.048c-0.506-1.019-1.551-1.894-1.829-2.945
	c-0.214-0.808,0.589-2.196-0.099-2.904c-1.722-1.771-4.131,0.628-4.845,1.852c-0.977,1.674-1.894,3.525-2.754,5.246
	c-0.598,1.195-1.102,3.984-2.475,4.571c-2.101,0.898-3.46-1.724-4.5-2.872c-1.666-1.84-3.429-0.974-5.219,0.278
	c-3.505,2.451-4.693,4.744-6.301,8.528c-1.173,2.762-2.486,6.648-6.803,5.294c-3.416-1.072-3.645-5.109-5.678-7.271
	c-1.16-1.234-2.549-2.342-3.522-3.753c-1.273-1.847-1.319-2.87-3.726-3.068c-5.077-0.416-4.365,7.999-6.03,11.091
	c-1.993,3.703-5.684,5.153-8.774,1.948c-1.871-1.94-1.923-3.523-2.196-6.02c-0.245-2.242-1.634-3.024-2.804-4.977
	c-0.936-1.563-1.573-3.244-2.445-4.754c-1.102-1.909-1.661-2.968-3.754-3.265c-0.703-0.1-3.338-0.37-3.872,0.171
	c-0.635,0.643,0.011,2.097-0.1,2.852c-0.256,1.752-1.768,5.04-4.13,4.091c-0.79-0.317-2.38-3.06-2.722-4.071
	c-0.881-2.599,0.901-3.514-2.176-4.039c-5.897-1.006-2.676,5.846-4.222,8.817c-0.7,1.344-2.401,2.257-3.801,2.242
	c-2.317-0.025-3.03-1.939-3.778-4.043c-0.666-1.875-1.068-5.354-3.174-6.071c-0.968-0.33-4.979-0.266-5.845,0.274
	c-3.161,1.971,0.511,6.797-2.932,9.068c-3.149,2.077-7.801-2.091-10.016-4.522c-0.837-0.918-1.333-3.083-2.48-3.569
	c-1.125-0.477-3.216,0.82-4.603,0.991c-0.046,1.845-1.511,3.991-1.952,5.829c-0.431,1.798-0.014,4.352-2.171,5.071
	c-1.05,0.35-5.025,0.297-6.096-0.023c-2.066-0.618-1.714-2.817-3.151-3.901c-1.083-0.816-4.207-0.286-5.098,0.555
	c-1.01,0.954-1.699,3.081-2.452,4.326c-0.814,1.345-1.685,2.507-2.279,3.943c-0.265,0.641-0.434,1.601-0.726,2.274
	c-0.246,0.567-0.867,1.508-1.023,1.977c-0.571,1.717-0.465,3.542-2.422,4.578c-1.629,0.862-4.38-0.006-5.849-0.804
	c-2.96-1.609-3.19-4.436-4.932-6.996c-1.212-1.782-3.331-3.19-4.774-4.968c-0.661-0.814-0.728-2.428-2.297-2.178
	c-1.492,0.238-0.438,1.14-1.171,1.924c-2.94,3.142-5.706,0.316-7.027-2.528c-0.979-2.107-1.794-3.036-4.021-1.52
	c-1.421,0.967-2.342,2.754-3,4.274c-1.144,2.644-1.256,6.966-4.681,8.045c-7.35,2.314-9.074-12.015-11.023-16.077
	c-0.908-1.892-2.656-3.414-3.799-5.217c-0.771-1.217-0.773-3.311-2.151-3.849c-2.759-1.076-3.834,2.566-4.824,4.143
	c-1.15,1.831-2.133,2.072-4.255,1.968c-1.886-0.093-2.724-0.305-3.822-2.02c-0.549-0.857-0.049-1.524-0.877-2.287
	c-1.743-1.604-3.283-0.131-4.317,1.294c-1.275,1.756-0.489,3.068-0.929,5.048c-0.28,1.262-1.413,2.772-2.306,3.694
	c-2.731,2.818-6.666,0.85-8.993-1.498c-1.298-1.31-2.552-2.665-3.526-4.251c-1.123-1.826-1.056-4.179-2.481-5.794
	c-1.424-1.614-3.992-1.91-5.543-0.274c-1.796,1.894-0.568,4.058-1.155,6.119c-0.546,1.919-2.29,2.21-4.075,1.971
	c-2.224-0.297-2.393-0.738-3.219-2.774c-0.563-1.388-0.751-3.933-2.729-4.317c-2.361-0.458-2.719,1.41-3.025,3.048
	c-0.478,2.563-0.415,9.744-5.052,8.091c-3.077-1.097-0.621-4.367-2.1-5.917c-1.524-1.597-4.179,0.344-4.646,1.829
	c-0.569,1.808-0.232,4.127-0.206,6.016c0.028,2.035-0.495,3.154-1.242,4.98c-0.78,1.907-0.387,4.339-2.703,5.068
	c-2.54,0.8-3.744-1.356-5.077-3.071c-2.377-3.059-4.64-5.889-6.724-9.025c-0.943-1.418-2.57-2.538-3.025-4.174
	c-0.511-1.837,0.656-4.289-2.258-3.842c-2.976,0.457-5.4,5.801-8.239,1.338c-1.109-1.744-1.174-4.212-1.955-6.29
	c-0.628-1.671-2.761-3.192-4.6-1.806c-1.051,0.792-1.132,3.787-2.099,4.877c-1.138,1.282-4.404,2.616-6.123,2.016
	c-2.021-0.705-1.948-3.716-2.71-5.31c-0.517-1.082,0.002-1.316-1.167-1.833c-0.258-0.114-2.889-0.109-3.15,0.004
	c-1.493,0.646-1.748,3.493-1.925,5.071c-0.232,2.064-0.731,3.926-0.973,6.023c-0.369,3.198-4.356,10.013-8.324,6.271
	c-1.297-1.223-0.576-3.912-2.678-4.388c-1.881-0.426-3.217,1.594-3.803,3.071c-2.177,5.491-0.878,20.187-10.274,16.023
	c-6.888-3.053-8.446-12.512-11.226-18.997c-1.045-2.437-1.148-4.064-3.996-2.274c-1.673,1.051-2.386,2.534-4.746,2.313
	c-2.28-0.213-1.932-1.214-2.984-3.039c-1.136-1.972-1.641-1.996-3.996-1.996c-2.843,0-2.686,0.744-4.726,2.267
	c-1.189,0.888-2.757,1.76-4.274,1.772c-3.79,0.03-3.997-4.597-6.726-6.313c-3.383-2.128-4.97,3.766-5.297,6.244
	c-0.508,3.845,0.503,7.603-0.948,11.052c-1.533,3.644-4.801,7.694-7.299,2.191c-1.299-2.862-2.101-6.084-2.729-9.196
	c-0.486-2.409-1.018-4.47-1-7.023c0.014-1.943,0.258-4.1,0.023-6.023c-0.474-3.887-4.889-5.661-7.769-2.722
	c-2.321,2.369-2.454,7.622-6.206,8.794c-3.989,1.245-6.653-1.99-8.326-4.771c-2.162-3.594-1.659-7.007-1.719-11.274
	c-0.03-2.111,0.775-3.053,1.02-4.98c0.271-2.137,0.059-3.123,0.977-5.023c-0.135,0.011,0.397-1.31,0.262-1.299
	c1.523-1.42,2.44-3.227,3.722-4.701c0.599-0.689,1.596-1.647,2.499-2.18c1.093-0.645,2.338-0.713,3.501-1.134
	c2.391-0.866,5.488-1.911,8.015-2.035c0.622-0.03,1.433,0.196,2.034,0.05c0.604-0.146,0.661-0.59,1.264-0.736
	c0.557-0.134,1.454,0.021,2.034,0.032c1.129,0.021,1.635-0.247,2.667-0.516c1.256-0.327,2.695-0.169,3.998-0.151
	c1.406,0.019,2.037-0.511,3.32-0.68c1.278-0.168,2.722,0.016,4.015,0.016c0.666,0,1.332-0.012,1.998-0.002
	c0.994,0.014,1.423-0.36,2.151-0.516c2.519-0.54,5.345,0.356,7.852-0.297c1.428-0.372,2.458-0.539,4-0.521
	c1.693,0.02,2.974-0.682,4.667-0.662c2.789,0.034,5.182-0.667,8-0.669c2.889-0.002,5.778,0,8.667,0c5.556,0,11.111,0,16.667,0
	c11.1,0,22.199,0,33.299,0c2.965,0,5.905-0.21,8.701,0.518c2.975,0.775,6.357-0.479,9.333,0.297
	c5.09,1.327,11.319,0.518,16.667,0.518c5.556,0,11.111-0.006,16.667,0c2.793,0.003,5.177,0.685,8,0.667
	c1.577-0.01,2.526,0.442,4,0.701c1.431,0.252,3.204-0.034,4.667-0.034c11.111,0,22.222,0,33.333,0c5.556,0,11.111,0,16.667,0
	c2.667,0,5.333,0.001,8,0c3.032-0.002,5.635-0.665,8.667-0.667c11.555-0.007,23.112-0.044,34.667,0
	c1.402,0.005,2.313-0.099,3.482-0.503c0.584-0.202,1.278-0.539,1.854-0.68c0.906-0.222,1.828,0.089,2.699-0.116
	c0.605-0.142,0.66-0.59,1.264-0.736c0.565-0.137,1.446,0.03,2.034,0.034c1.401,0.01,3.354,0.359,4.701,0.034
	c0.604-0.146,0.661-0.59,1.264-0.736c0.565-0.136,1.446,0.03,2.034,0.034c1.457,0.01,3.241,0.285,4.667,0.035
	c1.475-0.259,2.414-0.736,3.998-0.703C322.608,9.163,322.738,7.767,324.341,7.799z"/>
<path fill="#E7E7E7" d="M796.859,19.947c-4.893-2.479-10.226-3.702-15.201-5.501c-1.129-0.408-2.097-0.413-3.32-0.611
	c-1.374-0.222-2.624-1.177-3.998-1.405c-0.651-0.108-1.35,0.179-2,0.069c-0.742-0.126-1.258-0.61-2-0.736
	c-1.579-0.268-3.107-0.238-4.667-0.613c-1.357-0.326-2.661-0.504-4-0.834c-1.168-0.288-2.202-0.934-3.264-1.222
	c-0.81-0.219-1.865,0.052-2.736-0.112c-0.936-0.176-1.684-0.439-2.667-0.518c-0.989-0.08-1.743-0.338-2.686-0.518
	c-1.12-0.214-2.231,0.001-3.349-0.297c-5.439-1.449-10.834-1.846-16.632-1.852c-2.79-0.003-5.181-0.665-8-0.667
	c-1.252-0.001-2.776,0.25-4,0.034c-0.741-0.13-1.259-0.605-2-0.736c-0.811-0.143-1.837,0.035-2.667,0.035
	c-1.333-0.001-2.667-0.012-4,0c-1.725,0.015-3.025-0.476-4.701-0.701c-2.745-0.369-5.855,0.034-8.635,0.034
	c-3.516,0-7.034-0.024-10.55,0c-1.624,0.011-2.596-0.434-4.114-0.701c-1.431-0.252-3.204,0.034-4.667,0.034
	c-6.168,0-12.335,0-18.503,0c-1.77,0-3.542,0.016-5.312,0.002c-1.798-0.014-3.161,0.596-4.852,0.68c-0.638,0.032-1.373-0.161-2-0.05
	c-0.741,0.131-1.259,0.605-2,0.736c-0.627,0.111-1.362-0.081-2-0.05c-1.075,0.053-1.769,0.527-2.815,0.716
	c-2.613,0.473-5.85-0.034-8.521-0.034c-4.499,0-8.998,0-13.497,0c-7.772,0-15.544,0-23.316,0c-2.401,0-4.802,0.002-7.203,0
	c-1.122-0.001-2.362,0.148-3.479,0.034c-1.144-0.116-2.15-0.63-3.286-0.736c-1.503-0.139-3.045,0.153-4.553,0.069
	c-1.594-0.088-3.085-0.65-4.68-0.736c-2.348-0.125-5.03,0.489-7.316-0.114c-3.025-0.798-6.173-0.406-9.368-0.521
	c-1.628-0.059-3.003-0.614-4.635-0.68c-0.891-0.036-1.796,0.084-2.686,0.031c-1.179-0.071-2.172-0.586-3.333-0.716
	c-4.32-0.485-9.01,0.034-13.362,0.034c-2.873,0-5.746,0-8.619,0c-1.252,0-2.776-0.25-4-0.034c-1.475,0.259-2.424,0.712-4.002,0.701
	c-3.716-0.026-7.432,0.033-11.148,0.002c-3.659-0.03-7.285,0.885-10.884,1.365c-4.261,0.569-9.037-0.034-13.331-0.034
	c-3.474,0-7.78-0.678-11.168-0.034c-1.515,0.288-2.495,0.715-4.101,0.701c-2.503-0.021-5.028-0.088-7.529-0.015
	c-4.166,0.12-8.143,1.215-12.322,1.333c-4.965,0.14-9.954,1.912-14.847,2.013c-5.994,0.124-12.004,0.002-18,0.002
	c-1.555,0-3.111,0.011-4.667,0c-1.578-0.011-2.509,0.419-3.985,0.701c-2.835,0.543-6.434-0.034-9.349-0.034
	c-5.827,0-11.657,0.051-17.484,0.002c-3.219-0.027-6.011,1.346-9.183,1.331c-0.641-0.003-1.384,0.099-2.016,0.016
	c-0.637-0.084-1.015-0.437-1.466-0.534c-0.656-0.141-1.158-0.166-1.852-0.148c-1.001,0.025-1.419-0.362-2.148-0.518
	c-2.432-0.521-5.334-0.148-7.852-0.148c-3.116,0-6.233,0-9.349,0c-5.615,0-11.479-0.484-17.066,0.05
	c0.257-0.153,0.395-0.392,0.415-0.717c-1.603-0.032-1.732,1.364-3.336,1.331c-1.583-0.032-2.523,0.444-3.998,0.703
	c-1.426,0.251-3.21-0.024-4.667-0.034c-0.589-0.004-1.469-0.171-2.034-0.034c-0.604,0.146-0.66,0.59-1.264,0.736
	c-1.347,0.325-3.301-0.025-4.701-0.034c-0.589-0.004-1.469-0.171-2.034-0.035c-0.604,0.146-0.659,0.593-1.264,0.736
	c-0.871,0.205-1.792-0.106-2.699,0.116c-0.576,0.141-1.27,0.478-1.854,0.68c-1.168,0.404-2.079,0.508-3.482,0.503
	c-11.555-0.044-23.112-0.007-34.667,0c-3.032,0.002-5.635,0.665-8.667,0.667c-2.667,0.002-5.333,0-8,0c-5.556,0-11.111,0-16.667,0
	c-11.111,0-22.222,0-33.333,0c-1.462,0-3.236,0.286-4.667,0.035c-1.474-0.259-2.423-0.712-4-0.701c-2.823,0.019-5.207-0.664-8-0.667
	c-5.555-0.006-11.111,0-16.667,0c-5.347,0-11.576,0.808-16.667-0.518c-2.977-0.776-6.358,0.478-9.333-0.297
	c-2.796-0.728-5.736-0.518-8.701-0.518c-11.1,0-22.199,0-33.299,0c-5.555,0-11.111,0-16.667,0c-2.889,0-5.778-0.002-8.667,0
	c-2.818,0.002-5.211,0.703-8,0.669c-1.693-0.02-2.974,0.682-4.667,0.662c-1.542-0.019-2.572,0.149-4,0.521
	c-2.506,0.653-5.333-0.243-7.852,0.297c-0.727,0.156-1.156,0.53-2.151,0.516c-0.665-0.009-1.332,0.002-1.998,0.002
	c-1.293,0.001-2.737-0.184-4.015-0.015c-1.283,0.169-1.914,0.699-3.32,0.68c-1.303-0.018-2.741-0.176-3.998,0.151
	c-1.032,0.269-1.538,0.537-2.667,0.516c-0.58-0.011-1.477-0.166-2.034-0.032c-0.604,0.146-0.661,0.589-1.264,0.736
	c-0.601,0.146-1.413-0.08-2.034-0.05c-2.527,0.124-5.625,1.169-8.015,2.035c-1.163,0.421-2.408,0.489-3.501,1.134
	c-0.903,0.533-1.9,1.492-2.499,2.18c-1.282,1.474-2.2,3.282-3.722,4.701c0.135-0.011-0.397,1.31-0.262,1.299
	c-0.749,1.55-0.748,2.501-0.868,3.956c0.076,0.232,0.337,0.951,0.368,1.044c0.235,0.694,0.221,0.825,0.625,1.486
	c1.138,1.862,2.145,2.514,4.375,2.514c2.307,0,3.534-1.193,5.486-2.014c2.966-1.248,7.819-0.731,9.903,2.125
	c0.895,1.227,1.317,3.029,2.223,4.278c0.378,0.521,1.045,1.163,1.5,1.611c0.498,0.49,1.378,1.576,1.988,1.9
	c1.666,0.884,3.634-0.453,4.775-1.524c1.207-1.132,2.108-2.391,3.614-2.999c0.79-0.319,2.068-0.74,2.912-0.277
	c0.61,0.334,1.058,0.956,1.724,1.276c1.514,0.727,3.035,1.897,4.264,3.125c1.266,1.265,2.85,2.258,4.6,2.51
	c2.285,0.329,4.172-1.421,5.636-2.885c1.293-1.293,2.535-3.407,4.364-4.025c0.898-0.304,2.069-0.096,3.012-0.1
	c0.481-0.002,1.036-0.069,1.512-0.012c0.86,0.104,0.702,0.245,1.35,0.65c1.236,0.773,2.556,1.299,3.762,2.224
	c0.54,0.415,0.914,1.206,1.477,1.536c0.784,0.459,1.869,0.05,2.512-0.263c1.388-0.677,3.417-2.577,4.761-1.034
	c0.568,0.652,0.81,1.646,1.253,2.384c0.432,0.72,0.815,1.328,1.474,1.879c2.587,2.163,6.181,5.856,9.789,4.024
	c1.915-0.973,2.034-1.995,2.502-3.889c0.268-1.083,1.312-3.667,0.833-4.637c0.084-0.026,0.537-0.335,0.526-0.335
	c-0.047-0.166,0.024-0.373-0.042-0.542c0.245,0.061,0.482,0.029,0.71-0.095c0.053-0.208-0.017-0.342-0.209-0.405
	c0.438,0.095,0.847-0.107,1.044-0.512c0.377,0.037,2.035-0.275,1.969,0.554c1.101-0.302,2.174,0.647,2.905,1.349
	c1.139,1.093,2.353,1.64,3.927,1.606c0.087,0.102,0.097,0.209,0.029,0.321c0.538-0.252,0.916-0.728,1.5-0.872
	c0.084,0.151,0.065,0.276-0.04,0.38c0.978-0.72,3.702-3.674,2.667-4.312c0.431-0.11,1.064-1.533,1.431-1.861
	c-0.154-0.219,0.052-0.286,0.086-0.667c0.468,0.114,1.946-0.587,2.149-1.011c0.491,0.588,1.535,0.11,2.141-0.084
	c0.891-0.285,2.023-0.662,3.01-0.401c1.57,0.415,2.732,2.451,4.392,2.649c-0.028,0.134-0.057,0.269-0.086,0.403
	c0.33,0,0.66-0.014,0.989-0.041c-0.139,0.114-0.166,0.186-0.251,0.278c0.477,0.104,0.925,0.001,1.303-0.29
	c0.479,0.534,1.079,0.094,1.668-0.018c0.185,0.171,0.282,0.38,0.291,0.627c1.246-1.014,1.728-1.168,3.305-1.055
	c-0.12-0.25,1.417-0.792,1.866-1.142c0.922-0.718,1.897-1.367,2.356-2.41c0.34,0.014,0.587-0.128,0.903-0.226
	c0.646-1.355,3.659-0.802,4.764-0.248c1.505,0.755,2.565,2.042,3.839,3.122c1.345,1.14,2.471,1.968,3.611,3.365
	c0.772,0.946,1.978,1.551,2.661,2.497c0.353,0.489,0.47,0.719,0.866,1.134c0.332,0.349,0.72,0.445,0.967,0.933
	c0.44-0.171,0.884-0.328,1.333-0.471c0.109,0.196,0.335,0.257,0.447,0.446c0.239-0.501,2.162-0.411,2.805-0.544
	c0.407-0.084,0.771-0.106,1.348-0.624c0.298-0.267,0.541-0.589,0.849-0.723c-0.003,0.007,1.522-1.921,1.074-1.752
	c0.663-0.515,1.421-1.769,1.018-2.437c0.177,0.075,0.322,0.189,0.434,0.342c-0.268-0.97,1.353-1.299,2.001-1.541
	c0.232-0.185,1.173-0.304,1.443-0.25c0.629,0,4.221-0.409,3.209,0.902c0.491,0.199,1.027-0.076,1.484,0.198
	c0.414,0.248,0.577,0.843,0.837,1.204c0.151-0.085,0.266-0.204,0.343-0.359c0.635-0.01,1.11,0.276,1.156,0.86
	c0.685-0.695,2.078,0.018,2.494,0.456c0.716-0.22,1.464-0.04,2.27-0.224c0.605-0.138,2.55-1.346,2.453-1.661
	c0.274-0.388,0.593-0.625,0.795-0.335c0.145-1.092,1.232-1.457,1.6-2.293c0.374-0.186,1.263-1.297,1.25-0.469
	c0.148-0.57,2.51-0.265,3.161-0.303c0.63,1.183,2.721,1.281,2.548,2.816c1.466-0.639,1.107,0.683,2.346,0.844
	c-0.313,0.394,1.632-0.281,1.967-0.498c0.907-0.589,1.775-1.039,2.645-1.677c0.646,0.102,3.623,0.498,3.328,1.79
	c0.606-0.112,0.759,0.062,0.45,0.503c0.917-0.134,5.782,2.591,4.886,3.525c0.455-0.312,1.084-0.326,1.302,0.25
	c0.625-0.058,2.227-0.273,2.502,0.25c-0.011,0.007,0.566-0.39,0.473-0.278c0.974,0.108,2.36-0.577,2.915-1.363
	c0.658-0.931,1.168-1.696,2.039-2.552c-0.178,0.005-0.336,0.07-0.474,0.194c0.152-0.231,0.378-0.471,0.414-0.559
	c0.593,0.275,0.428-0.202,0.861-0.459c0.788-0.468,1.081-0.732,2.023-0.772c0.629-0.027,1.388-0.074,2.012,0
	c1.091,0.129,0.679,0.349,1.335,0.886c0.538,0.44,1.027,0.376,1.512,0.613c0.666,0.324,0.999,0.69,1.628,1.136
	c0.423,0.3,1.889,1.694,2.276,1.638c-0.078-0.104-0.063-0.195,0.045-0.274c0.954-0.012,2.177,0.237,3.08-0.087
	c0.288-0.103,0.79-0.631,1.111-0.789c0.602-0.296,1.024-0.245,1.554-0.748c0.017-0.254-0.109-0.378-0.377-0.372
	c0.426,0.029,0.845-0.015,1.257-0.131c-0.063,0.049-0.107,0.113-0.132,0.193c0.661-0.464,1.389-1.366,2.172-1.577
	c0.605-0.164,1.798,0.034,2.285,0.012c0.146,0.177,0.133,0.075,0.348,0.237c0.302,0.859,1.717,1.15,2.405,1.764
	c0.808,0.722,1.535,1.466,2.375,2.15c0.958,0.78,2.55,2.384,2.332,3.774c0.227,0.085,0.459,0.156,0.695,0.212
	c-0.232,0.368-0.349,1.128,0.346,1.11c-0.027,0.146,0.008,0.282,0.103,0.408c0.374,0.087,0.099,0.009,0.85,0.233
	c0.441,0.139,0.888,0.176,1.341,0.11c0.259,0.033,0.444,0.167,0.557,0.403c0.683,0.139,1.606-0.14,2.114,0.389
	c1.856-1.244,4.015,0.702,5.285-1.792c0.329-0.647,0.737-1.299,1.005-1.972c0.251-0.632,0.074-1.697,1.248-1.526
	c-0.169-0.008,0.596,0.024,0.492,0.012c0.201,0.01,0.699-0.001,1.025-0.036c0.166,1.14,1.621,1.963,2.109,3.036
	c0.148,0.326,0.2,1.141,0.339,1.373c0.268,0.447,0.748,0.519,0.756,1.006c0.517,0.2,0.608,0.742,0.892,1.176
	c0.848-0.73,1.649,0.366,2.225,0.821c0.821,0.649,1.968,0.804,2.746,1.409c0.966-0.098,1.096-0.604,1.627-1.274
	c0.672-0.848,1.568-1.572,2.467-2.157c-0.08-0.171-0.2-0.301-0.361-0.392c0.25,0.071,0.487,0.172,0.711,0.302
	c0.037-0.969,2.092,0.906,1.191,1.219c0.093,0.222,0.201,0.436,0.326,0.642c-0.488-0.021-0.825,0.236-0.635,0.777
	c0.392,0.047,0.779,0.028,1.162-0.056c-0.164,0.225-0.217,0.602-0.377,0.818c0.151-0.079,0.43-0.097,0.587-0.191
	c-0.247,0.206-0.355,0.529-0.585,0.761c0.074,0.259,0.203,0.491,0.384,0.695c0.389-0.013,0.725-0.182,0.922-0.458
	c0.105-0.023,0.387-0.024,0.515,0.002c-0.208,0.061-0.283,0.199-0.225,0.415c0.366,0.125,0.96,0.161,1.233,0.085
	c-0.155,1.183,1.272,0.6,1.937,0.526c0.25,0.507,0.999,0.075,1.594,0.134c-0.021-0.028,1.355-1.556,1.68-2.134
	c0.61-1.089,1.038-2.338,1.626-3.5c0.776-1.534,0.96-2.556,2.29-3.649c0.624-0.512,1.219-1.224,1.841-1.851
	c0.688-0.005,1.614-0.203,1.991,0.25c0.516,0.009,0.264-0.218,0.479,0.255c0.702-0.405,1.685,0.458,0.971,1.005
	c0.525,0.171,2.149,0.857,1.504,1.513c0.972-0.068,1.6-0.132,2.413-0.401c1.445-0.479,1.724-0.739,2.512-2.013
	c1.022-1.652,1.596-3.659,3.876-3.61c-0.11,0.009,0.28,0.018,0.171,0.028c1.076-0.707,2.529-1.151,3.706-1.65
	c1.56-0.661,2.69-1.356,4.258-0.001c0.945,0.816,1.699,2.065,2.729,2.759c1.262,0.85,3.762,0.375,3.721-1.562
	c4.392-1.076,4.781,4.291,7.803,6.075c1.674,0.989,2.917,1.219,4.486-0.272c1.317-1.252,1.851-2.668,3.002-4.011
	c1.106-1.291,2.441-3.2,4.112-3.765c2.016-0.682,4.262,0.069,5.873,1.039c1.28,0.771,2.616,2.183,4.127,2.373
	c2.314,0.291,3.567-0.321,5.135-1.888c0.983-0.982,2.549-2.926,3.904-1.646c0.941,0.889,0.981,1.463,2.472,1.534
	c1.257,0.06,2.373-0.001,3.526-0.511c0.63-0.279,1.286-0.864,1.947-1.024c0.597-0.145,2.005,0.181,2.429,0.623
	c0.224,0.234,0.216,0.747,0.45,1.038c0.296,0.368,0.741,0.55,1.149,0.752c0.879,0.435,1.621,0.556,2.374,1.239
	c1.401,1.268,2.001,2.91,3.626,3.995c1.742,1.163,3.422,2.621,5.488,2.889c0.701,0.091,2.289,0.221,2.912-0.111
	c0.506-0.27,1.06-1.108,1.476-1.524c1.272-1.272,2.407-2.592,3.487-3.987c0.807-1.043,2.441-2.898,3.75-3.276
	c0.901-0.259,1.938-0.098,2.885-0.111c1.287-0.017,1.804,0.452,2.892,1.122c0.836,0.515,1.518,1.166,2.247,1.763
	c0.737,0.605,1.504,0.77,2.374,1.239c0.837,0.451,1.514,1.098,2.379,1.51c0.889,0.424,2.033,0.511,3.121,0.376
	c1.098-0.136,1.625-0.685,2.391-1.524c0.54-0.592,1.336-1.178,1.747-1.865c0.832-1.392,0.992-3.295,2.451-4.495
	c1.255-1.033,3.817-1.585,5.426-1.151c0.764,0.206,1.534,1.019,2.084,1.512c0.965,0.866,1.701,1.54,2.892,2.136
	c1.716,0.859,4.03,1.933,6.024,1.4c0.983-0.263,1.695-1.375,2.363-2.052c0.839-0.85,1.679-1.683,2.486-2.608
	c1.025-1.174,2.713-2.067,4.1-2.391c0.735-0.171,2.276-0.123,3.026,0.002c1.163,0.194,1.948,1.268,2.974,1.548
	c1.548,0.422,3.928,0.191,4.902-1.122c0.851-1.146,0.578-1.422,2.126-1.4c1.281,0.017,2.278,0.438,3.498,0.51
	c1.392,0.082,1.965,0.016,2.9-1.026c0.455-0.507,0.993-1.57,1.576-1.899c0.714-0.402,2.214-0.074,3.022-0.085
	c1.094-0.016,1.76,0.272,2.641,0.861c1.059,0.709,2.159,1.457,2.75,2.637c0.639,1.277,0.503,2.911,1.599,4.024
	c0.999,1.015,2.171,1.594,3.514,1.99c1.595,0.47,4.025,1,5.496,0.01c0.476-0.32,1.339-0.996,1.65-1.496
	c0.429-0.689,0.339-1.442,0.953-2.037c0.727-0.706,1.438-0.476,2.399-0.489c1.133-0.015,1.432-0.033,2.137,0.877
	c0.418,0.541,0.988,1.004,1.389,1.51c0.398,0.503,0.665,0.988,0.974,1.611c0.584,1.176,1.175,1.911,2.124,2.876
	c0.87,0.886,1.655,1.481,2.865,1.635c0.694,0.089,1.825,0.136,2.512,0.014c1.085-0.191,1.3-0.936,2.135-0.048
	c0.307,0.326,0.731,1.098,0.99,1.508c0.58,0.918,0.862,1.027,1.763,1.64c1.042,0.708,1.813,1.872,2.737,2.751
	c2.57,2.443,5.097,0.155,6.486-2.253c0.663-1.15,1.425-2.375,2.026-3.486c0.382-0.706,0.199-1.261,0.463-2.026
	c0.139-0.402,0.846-1.297,1.154-1.635c1.402-0.404,1.56-1.48,3.285-1.474c1.273,0.004,1.792,0.559,3.111,0.472
	c-0.007,0.128,0.128,0.309,0.06,0.54c0.621-0.148,1.467,0.683,1.907,1.01c0.081-0.006,1.286-0.028,1.55-0.024
	c0.551,0.227,3.614-1.918,3.044-2.487c0.9-0.385,1.181-1.292,1.668-2.029c0.476-0.721,1.88-2.133,1.845-2.884
	c0.865-0.152,1.654-0.773,2.563-0.6c0.418,0.006,0.796-0.053,1.146,0.111c-0.11,0.284-0.326,0.423-0.648,0.416
	c0.869-0.111,1.491-0.062,1.949,0.46c0.591,0.672,0.275,1.068,0.903,1.633c0.571,0.514,0.482,0.108,1.113,0.353
	c0.293,0.114,0.323,0.441,0.723,0.552c0.055,0.015,0.76-0.001,1.043-0.013c0.251,0.02,0.518,0.005,0.765,0.012
	c0.151-0.423,0.58-0.497,0.871-0.889c0.459-0.618,0.468-1.398,0.973-2.036c0.45-0.568,1.868-1.909,1.735-2.598
	c0.143-0.156,0.362-0.385,0.486-0.529c0.325,0.016,0.65,0.034,0.974,0.055c-0.107-0.13-0.153-0.438-0.241-0.554
	c0.227,0.006,0.454,0.015,0.681,0.026c0.63,0,1.26,0,1.891,0c-0.197,0.016,0.362-0.026,0.362-0.026
	c0.316,0.897,1.499,0.558,1.221,1.954c0.176,0.111,0.362,0.13,0.558,0.056c-0.089,0.105-0.143,0.428-0.211,0.516
	c0.36-0.019,0.642,0.11,0.847,0.389c-0.059,0.123-0.132,0.156-0.22,0.099c0.119,0.252,0.417,0.519,0.707,0.65
	c-0.061,0.182-0.178,0.311-0.349,0.387c0.671-0.016,1.195-0.227,1.523,0.502c1.487-0.082,2.836-0.529,4.41-0.526
	c0.839,0.002,2.409-0.634,3.002-0.998c0.639-0.393,1.312-0.754,1.972-1.127c1.054-0.595,1.914-1.21,3.05-0.508
	c0.614,0.379,1.438,1.158,1.865,1.745c1.023,1.409,1.24,2.751,2.988,3.512c1.027,0.447,1.139,0.435,2.095-0.236
	c1.18-0.827,1.583-1.383,3.028-1.383c1.585,0,3.319,1.483,4.149,2.885c0.871,1.472,1.494,3.034,2.477,4.5
	c1.048,1.563,3.662,1.616,5.01,0.247c1.307-1.328,1.953-3.37,3.229-4.772c1.137-1.249,3.765-2.521,5.271-1.498
	c1.339,0.909,2.199,2.508,3.464,3.51c1.254,0.992,4.216,0.955,5.51,0.272c1.631-0.861,2.541-2.947,3.753-4.258
	c1.375-1.487,2.427-2.341,4.635-1.913c1.03,0.2,1.359,0.816,2.102,1.4c0.906,0.713,2.256,1.255,3.289,1.759
	c1.631,0.797,3.274,0.495,4.599-0.733c1.608-1.491,2.813-3.4,4.538-4.802c1.332-1.083,3.137-1.99,4.861-1.487
	c0.637,0.186,1.256,0.771,1.737,1.263c0.729,0.747,1.46,1.133,2.278,1.747c0.695,0.522,0.768,1.151,1.209,1.765
	c0.389,0.54,1.039,1.014,1.512,1.487c0.523,0.524,0.994,1.067,1.476,1.61c0.977,1.098,1.933,1.204,3.412,1.026
	c2.041-0.245,2.144-2.798,3.977-3.41c2.484-0.829,3.397,2.21,4.635,3.801c1.109,1.425,1.874,3.016,2.876,4.598
	c0.878,1.386,1.922,3.401,3.613,3.887c4.468,1.285,6.452-3.805,8.752-6.485c1.408-1.64,2.452-2.412,4.635-2.402
	c1.001,0.005,1.813-0.142,2.637,0.365c0.968,0.594,1.678,1.225,2.863,1.522c2.031,0.509,4.185,0.143,5.998-0.763
	c1.819-0.91,2.509-2.605,4.018-3.496c1.279-0.755,3.174-1.737,4.619-0.763c1.643,1.108,2.209,3.393,4.353,3.647
	c0.484,0.057,1.066-0.151,1.537-0.037c0.453,0.11,0.495,0.443,0.948,0.552c1.017,0.244,2.105-0.12,3.026-0.405
	c1.057-0.327,1.948-0.689,2.635-1.607c0.598-0.798,0.811-1.771,1.478-2.513c1.35-1.501,2.336-2.144,4.387-2.013
	c2.148,0.137,3.11,1.882,4.877,2.634c0.86,0.366,1.585,0.438,2.623,0.387c1.276-0.062,1.655-0.651,2.373-1.647
	c0.364-0.504,0.695-1.415,1.229-1.762c1.074-0.697,2.628,0.125,3.423,0.789c1.568,1.31,2.499,2.006,4.45,1.11
	c0.949-0.436,2.112-0.924,2.926-0.036c0.689,0.752,1.023,2.186,1.6,3.034c0.761,1.121,1.846,2.277,3.002,3
	c1.555,0.972,4.4,0.748,6.01-0.124c0.784-0.425,1.164-1.008,1.851-1.512c0.63-0.462,1.175-0.644,1.761-1.239
	c1.234-1.255,2.364-1.851,3.876-2.624c1.489-0.761,2.827-1.322,4.377-0.389c2.2,1.324,4.038,1.88,6.649,1.889
	c0.975,0.003,1.67,0.186,2.349-0.6c0.568-0.657,0.866-1.389,1.502-2.024c0.589-0.588,1.131-0.778,1.761-1.239
	c0.811-0.595,1.299-1.301,2.25-1.772c0.678-0.337,1.02-0.347,1.757-0.361c1.852,0.015,3.461,0.74,5.368,0.508
	c1.471-0.178,2.297-2.394,3.707-2.011c0.354,0.006,0.709-0.003,1.062-0.026c-0.025,0.519,0.703,0.611,0.967,0.5
	c1.33,1.276,2.539,2.652,3.917,3.915c-0.027,0.118-0.104,0.193-0.232,0.222c0.743,0.591,1.726,0.594,2.316,1.415
	c0.473-0.178,0.734,0.388,1.224,0.5c0.651,0.149,1.867,0.067,2.537-0.014c0.909-0.11,0.952-0.294,1.614-0.886
	c0.367-0.328,0.651-0.78,1.125-0.598c0.434-0.639,1.721-1.16,2.504-1.03c0.561-0.015,1.186-0.145,1.703,0.116
	c-0.1,0.167-0.233,0.296-0.4,0.389c1.199,0.143,2.412,1.517,3.164,2.008c0.852-0.026,1.707-0.01,2.56-0.01
	c1.284,0.005,2.17-0.511,3.331-1.012c0.725-0.313,3.338-0.774,2.971-2.113c0.552-0.433,1.573-0.75,1.401-1.4
	c0.224,0.006,0.449,0.014,0.673,0.024c-0.29,0.242,0.487-0.405,0.619-0.514c-0.051,0.056-0.074,0.027-0.068-0.085
	c0.215-0.111,0.367-0.253,0.489-0.411C805.316,25.463,800.775,21.931,796.859,19.947z"/>
<path fill="#F2F2F2" d="M796.859,19.947c-4.893-2.479-10.226-3.702-15.201-5.501c-1.129-0.408-2.097-0.413-3.32-0.611
	c-1.374-0.222-2.624-1.177-3.998-1.405c-0.651-0.108-1.35,0.179-2,0.069c-0.742-0.126-1.258-0.61-2-0.736
	c-1.579-0.268-3.107-0.238-4.667-0.613c-1.357-0.326-2.661-0.504-4-0.834c-1.168-0.288-2.202-0.934-3.264-1.222
	c-0.81-0.219-1.865,0.052-2.736-0.112c-0.936-0.176-1.684-0.439-2.667-0.518c-0.989-0.08-1.743-0.338-2.686-0.518
	c-1.12-0.214-2.231,0.001-3.349-0.297c-5.439-1.449-10.834-1.846-16.632-1.852c-2.79-0.003-5.181-0.665-8-0.667
	c-1.252-0.001-2.776,0.25-4,0.034c-0.741-0.13-1.259-0.605-2-0.736c-0.811-0.143-1.837,0.035-2.667,0.035
	c-1.333-0.001-2.667-0.012-4,0c-1.725,0.015-3.025-0.476-4.701-0.701c-2.745-0.369-5.855,0.034-8.635,0.034
	c-3.516,0-7.034-0.024-10.55,0c-1.624,0.011-2.596-0.434-4.114-0.701c-1.431-0.252-3.204,0.034-4.667,0.034
	c-6.168,0-12.335,0-18.503,0c-1.77,0-3.542,0.016-5.312,0.002c-1.798-0.014-3.161,0.596-4.852,0.68c-0.638,0.032-1.373-0.161-2-0.05
	c-0.741,0.131-1.259,0.605-2,0.736c-0.627,0.111-1.362-0.081-2-0.05c-1.075,0.053-1.769,0.527-2.815,0.716
	c-2.613,0.473-5.85-0.034-8.521-0.034c-4.499,0-8.998,0-13.497,0c-7.772,0-15.544,0-23.316,0c-2.401,0-4.802,0.002-7.203,0
	c-1.122-0.001-2.362,0.148-3.479,0.034c-1.144-0.116-2.15-0.63-3.286-0.736c-1.503-0.139-3.045,0.153-4.553,0.069
	c-1.594-0.088-3.085-0.65-4.68-0.736c-2.348-0.125-5.03,0.489-7.316-0.114c-3.025-0.798-6.173-0.406-9.368-0.521
	c-1.628-0.059-3.003-0.614-4.635-0.68c-0.891-0.036-1.796,0.084-2.686,0.031c-1.179-0.071-2.172-0.586-3.333-0.716
	c-4.32-0.485-9.01,0.034-13.362,0.034c-2.873,0-5.746,0-8.619,0c-1.252,0-2.776-0.25-4-0.034c-1.475,0.259-2.424,0.712-4.002,0.701
	c-3.716-0.026-7.432,0.033-11.148,0.002c-3.659-0.03-7.285,0.885-10.884,1.365c-4.261,0.569-9.037-0.034-13.331-0.034
	c-3.474,0-7.78-0.678-11.168-0.034c-1.515,0.288-2.495,0.715-4.101,0.701c-2.503-0.021-5.028-0.088-7.529-0.015
	c-4.166,0.12-8.143,1.215-12.322,1.333c-4.965,0.14-9.954,1.912-14.847,2.013c-5.994,0.124-12.004,0.002-18,0.002
	c-1.555,0-3.111,0.011-4.667,0c-1.578-0.011-2.509,0.419-3.985,0.701c-2.835,0.543-6.434-0.034-9.349-0.034
	c-5.827,0-11.657,0.051-17.484,0.002c-3.219-0.027-6.011,1.346-9.183,1.331c-0.641-0.003-1.384,0.099-2.016,0.016
	c-0.637-0.084-1.015-0.437-1.466-0.534c-0.656-0.141-1.158-0.166-1.852-0.148c-1.001,0.025-1.419-0.362-2.148-0.518
	c-2.432-0.521-5.334-0.148-7.852-0.148c-3.116,0-6.233,0-9.349,0c-5.615,0-11.479-0.484-17.066,0.05
	c0.257-0.153,0.395-0.392,0.415-0.717c-1.603-0.032-1.732,1.364-3.336,1.331c-1.583-0.032-2.523,0.444-3.998,0.703
	c-1.426,0.251-3.21-0.024-4.667-0.034c-0.589-0.004-1.469-0.171-2.034-0.034c-0.604,0.146-0.66,0.59-1.264,0.736
	c-1.347,0.325-3.301-0.025-4.701-0.034c-0.589-0.004-1.469-0.171-2.034-0.035c-0.604,0.146-0.659,0.593-1.264,0.736
	c-0.871,0.205-1.792-0.106-2.699,0.116c-0.576,0.141-1.27,0.478-1.854,0.68c-1.168,0.404-2.079,0.508-3.482,0.503
	c-11.555-0.044-23.112-0.007-34.667,0c-3.032,0.002-5.635,0.665-8.667,0.667c-2.667,0.002-5.333,0-8,0c-5.556,0-11.111,0-16.667,0
	c-11.111,0-22.222,0-33.333,0c-1.462,0-3.236,0.286-4.667,0.035c-1.474-0.259-2.423-0.712-4-0.701c-2.823,0.019-5.207-0.664-8-0.667
	c-5.555-0.006-11.111,0-16.667,0c-5.347,0-11.576,0.808-16.667-0.518c-2.977-0.776-6.358,0.478-9.333-0.297
	c-2.796-0.728-5.736-0.518-8.701-0.518c-11.1,0-22.199,0-33.299,0c-5.555,0-11.111,0-16.667,0c-2.889,0-5.778-0.002-8.667,0
	c-2.818,0.002-5.211,0.703-8,0.669c-1.693-0.02-2.974,0.682-4.667,0.662c-1.542-0.019-2.572,0.149-4,0.521
	c-2.506,0.653-5.333-0.243-7.852,0.297c-0.727,0.156-1.156,0.53-2.151,0.516c-0.665-0.009-1.332,0.002-1.998,0.002
	c-1.293,0.001-2.737-0.184-4.015-0.015c-1.283,0.169-1.914,0.699-3.32,0.68c-1.303-0.018-2.741-0.176-3.998,0.151
	c-1.032,0.269-1.538,0.537-2.667,0.516c-0.58-0.011-1.477-0.166-2.034-0.032c-0.604,0.146-0.661,0.589-1.264,0.736
	c-0.601,0.146-1.413-0.08-2.034-0.05c-0.672,0.033-1.386,0.134-2.115,0.277c-0.215,0.539-0.375,1.091-0.495,1.574
	c-0.254,1.028-0.541,1.877-0.402,3.01c0.158,1.294,1.042,2.029,2.037,2.889c0.638,0.551,1.213,1.068,1.963,1.474
	c1.146,0.621,1.807,0.462,3.023,0.614c1.847,0.232,3.181,1.203,4.487,2.636c1.101,1.208,2.498,2.821,4.402,1.776
	c0.276-0.151,0.447-0.578,0.698-0.777c0.399-0.316,0.902-0.435,1.304-0.747c0.85-0.66,1.552-1.469,2.233-2.278
	c1.192-1.416,2.449-1.993,4.363-1.622c2.153,0.417,2.791,2.574,4.101,3.924c1.009,1.04,4.447,0.904,5.523,0.248
	c1.65-1.006,1.997-3.142,2.99-4.621c1.355-2.019,2.541-2.528,4.887-2.528c1.021,0,1.784-0.093,2.637,0.363
	c0.725,0.387,1.299,1.028,1.974,1.526c0.499,0.368,1.766,1.079,2.39,1.147c1.146,0.125,1.561-0.636,2.359-1.173
	c0.557-0.374,1.168-0.936,1.737-1.265c0.363-0.21,0.887-0.111,1.291-0.206c0.896-0.209,0.343-0.56,1.224,0.074
	c3.785,2.721,4.371,8.196,9.387,9.421c4.259,1.04,6.057-2.61,8.474-5.387c1.132-1.3,2.824-2.796,4.514-3.012
	c1.956-0.25,4.901-0.329,6.537,0.876c0.899,0.662,1.248,1.684,2.474,2.034c0.76,0.217,2.247,0.304,3.026,0.127
	c1.882-0.427,3.08-2.457,4.448-3.649c1.696-1.476,3.375-1.369,5.526-1.377c1.021-0.004,1.786-0.091,2.637,0.363
	c0.249,0.132,0.611,0.479,0.865,0.635c0.4,0.247,1.02,0.346,1.387,0.613c0.592,0.431,0.969,1.096,1.587,1.513
	c0.827,0.557,1.854,0.753,2.661,1.237c0.924,0.555,1.145,0.645,2.363,0.639c0.484-0.002,1.034,0.069,1.512,0.011
	c0.86-0.104,0.701-0.249,1.349-0.65c0.716-0.443,1.409-0.7,2.028-1.363c0.706-0.756,1.005-1.573,2.113-1.897
	c2.134-0.624,4.592,1.057,6.385,2.036c1.642,0.896,3.699,1.416,5.013,2.875c1.068,1.186,2.003,3.31,3.588,3.499
	c1.99,0.237,4.284,0.135,5.912-1.135c0.689-0.538,1.555-1.229,2.126-1.876c0.825-0.936,1.024-1.934,1.6-3.012
	c0.374-0.7,0.742-1.076,1.292-1.625c-0.08-0.163-0.2-0.284-0.359-0.361c0.596-0.091,1.098-0.422,1.679-0.513
	c0.548-0.086,1.194,0.018,1.753,0.013c1.759-0.015,3.514,0.419,5.036,1.375c1.027,0.644,1.852,1.296,2.963,1.747
	c1.369,0.555,2.647,0.298,4.123,0.401c0.174-0.193,1.191-0.415,1.441-0.649c0.232-0.218,0.219-0.578,0.398-0.739
	c0.711-0.639,1.444-1.417,2.201-2.048c0.119-0.004,0.146,0.056,0.083,0.179c0.183-0.075,0.356-0.169,0.518-0.282
	c0.309,0.103,0.233-0.054,0.653-0.095c0.003-0.148-0.029-0.286-0.098-0.415c1.337,0.042,2.67-0.148,3.802,0.391
	c1.018,0.485,1.955,1.748,3.168,1.621c-0.056,1.062,5.597,0.523,6.515,0.014c-0.053-0.662,2.295-0.679,2.747-0.524
	c1.012,0.347,1.53,1.625,2.449,2.163c2.563,1.501,4.885,3.398,7.512,4.736c1.941,0.988,5.838,1.093,7.763,0.248
	c1.087-0.477,1.765-1.316,2.572-2.109c0.778-0.764,2.893-1.589,2.54-3.038c0.905-0.708,2.719-2.326,4.165-2.013
	c1.439,0.312,2.555,1.577,3.641,2.423c0.01,0.188-0.065,0.322-0.224,0.403c-0.116,0.062,0.958-0.394,0.794-0.314
	c0.79-0.083,1.285,0.671,2.262,0.535c1.091-0.153,1.298-0.668,2.112-1.384c0.582-0.512,1.551-1.048,2.412-0.663
	c0.555,0.248,1.261,1.784,1.6,2.426c0.35,0.662,0.742,1.511,1.228,2.124c0.658,0.83,2.074,1.58,3.024,2.138
	c0.827,0.485,2.126,1.205,3.111,1.374c1.64,0.281,2.402-0.358,3.4-1.55c0.615-0.734,1.412-1.206,1.99-1.961
	c0.568-0.741,1.304-1.95,2.207-2.412c1.758-0.898,2.654,1.996,3.253,3.01c0.556,0.94,1.312,1.336,2.147,1.889
	c0.687,0.455,1.248,1.195,1.978,1.635c0.915,0.551,2.319,0.606,3.161,0.012c0.783-0.553,1.315-1.793,2.082-2.157
	c0.697,0.038,1.161-0.16,1.572,0.524c-0.142-0.071-0.254-0.039-0.335,0.097c0.209,0.165,0.438,0.291,0.687,0.379
	c-0.158,0.371,1.151,2.917,1.481,3.521c0.253,0.464,0.56,1.101,0.865,1.489c0.397,0.504,1.366,1.006,1.232,1.791
	c0.785-0.192,1.483,0.617,2.268,0.721c0.667,0.088,1.593,0.1,2.237-0.113c1.089-0.361,1.891-1.443,2.284-2.399
	c0.468-1.138,0.951-2.343,1.379-3.5c0.189-0.511,0.27-1.002,0.489-1.512c0.241-0.562,0.366-0.66,0.623-1.098
	c0.547-0.933,0.938-1.917,1.487-2.892c0.387-0.688,0.968-2.417,2.039-2.045c0.541,0.188,0.85,1.404,1.243,1.936
	c-0.209,0.146-0.238,0.313-0.086,0.5c0.872,0.096,0.865,0.248,1.439,0.61c0.412,0.259,0.715,0.637,1.101,0.5
	c0.576-0.017,1.664-0.333,1.512,0.567c0.625-0.58,3.218-3.437,2.724-4.2c1.674-1.155,3.898-2.327,5.495-1.876
	c0.331-0.049,0.653-0.008,0.965,0.125c0.016,0.143-0.013,0.272-0.088,0.389c0.601,0.096,1.072,0.541,1.417,1.019
	c0.093-0.016,0.638-0.076,0.477-0.019c0.666-0.139,1.012,0.383,1.399,0.399c0.836,0.033,0.879-0.175,1.503-0.777
	c1.233-1.189,2.079-1.536,3.649-1.638c-0.041,0.089-0.062,0.183-0.063,0.28c0.736-0.604,1.264,0.459,1.638,0.845
	c0.881,0.909,1.298,1.102,2.678,0.9c1.002-0.146,1.229-0.636,2.116-1.026c0.893-0.392,1.836-1.381,2.857-1.486
	c1.801-0.185,4.071-0.332,5.373,1.125c0.462,0.517,0.93,1.153,1.266,1.736c0.642,1.116,0.886,1.341,2.373,1.15
	c1.9-0.244,2.681-2.67,4.998-1.91c1.131,0.371,0.741,1.242,1.592,1.797c0.883,0.576,2.448-0.184,3.424,0.077
	c2.444,0.653,5.347,8.121,8.363,3.913c0.371-0.517,0.705-1.437,0.987-2.013c0.373-0.761,0.772-1.16,1.25-1.863
	c1.196-1.756,3.293-2.512,5.375-2.512c1.94,0,3.349,0.636,4.986,1.488c0.768,0.4,1.178,1.226,1.99,1.524
	c0.483,0.178,0.99,0.11,1.524,0.35c0.76,0.342,1.158,0.595,1.998,0.647c2.111,0.131,2.71-1.84,4.489-2.412
	c1.775-0.57,4.151-1.079,6.013-0.235c1.84,0.834,3.98,1.66,6,1.635c1.054-0.013,1.734,0.02,2.623-0.375
	c0.871-0.388,1.868-0.969,2.901-0.647c0.921,0.287,1.184,1.391,1.963,1.926c0.784,0.539,1.45,0.776,2.137,1.474
	c1.403,1.425,2.835,2.728,4.876,3.15c1.826,0.377,3.201-0.507,4.476-1.625c1.046-0.918,2.026-1.859,2.924-2.924
	c0.677-0.802,1.412-1.215,2.237-1.852c1.65-1.273,2.69-2.139,4.863-2.124c0.942,0.007,2.078-0.188,3-0.026
	c0.555,0.098,0.942,0.461,1.498,0.554c0.343-0.018,0.685-0.037,1.028-0.055c0.272,0.034,0.467,0.173,0.585,0.416
	c0.727,0.152,2.176,0.366,2.913,0.135c0.492-0.153,0.451-0.431,0.839-0.663c0.394-0.236,0.716-0.267,1.137-0.472
	c2.036-0.993,2.745-2.554,4.974-1.263c1.855,1.074,3.96,2.036,6.026,2.4c2.278,0.402,4.397-0.274,6.488-0.901
	c2.129-0.639,4.014-1.217,6.037-2.123c1.767-0.791,4.164-0.815,5.974,0.124c1.003,0.52,2.084,0.789,3.012,1.361
	c0.836,0.516,1.5,1.182,2.377,1.65c1.74,0.931,3.215,1.188,5.086,0.361c3.566-1.577,6.055-6.001,10.014-6.51
	c1.164-0.149,2.044,0.005,3.012,0.513c0.962,0.505,1.991,0.855,3,1.373c0.902,0.463,2.002,0.962,2.998,1.149
	c1.214,0.229,1.647-0.624,2.615-0.911c2.521-0.748,3.975,0.55,5.361,2.387c1.377,1.825,3.877,2.999,5.663,4.376
	c3.099,2.39,7.072,4.857,10.472,1.648c1.626-1.534,2.692-3.286,3.742-5.133c0.321-0.566,0.754-0.827,1.161-1.281
	c0.426-0.474,0.695-0.992,1.113-1.512c0.609-0.757,1.691-1.442,2.486-1.972c0.908-0.606,1.808-1.062,2.887-1.135
	c1.755-0.119,1.647,1.021,3.004,1.908c1.564,1.022,5.99,1.16,6.217-1.397c0.466-0.13,0.884-0.442,1.076-0.892
	c-0.574-0.674,1.094-0.995,1.605-1.247c0.773-0.38,1.238-0.742,2.123-0.875c1.114-0.167,2.972-0.228,3.988,0.111
	c1.265,0.422,2.115,1.917,3.088,2.763c1.255,1.092,2.612,1.668,4.161,1.624c0.214,0.17,0.333,0.002,0.477,0.302
	c1.606-0.774,2.585-1.964,3.888-3.162c0.701-0.645,1.454-0.771,2.252-1.239c0.899-0.527,1.679-1.268,2.611-1.765
	c0.994-0.53,1.893-1.059,3.012-1.134c1.985-0.133,1.93,1.318,3.5,1.934c1.13,0.443,2.455-0.041,3.5-0.313
	c0.818-0.213,2.068-0.113,2.723-0.111c0.938,0.013,1.652-0.148,2.413,0.365c0.693,0.467,1.131,1.289,1.841,1.759
	c0.96,0.636,1.824,0.915,2.648,1.753c0.567,0.577,1.125,1.225,1.741,1.747c1.481,1.255,3.435,2.922,5.137,3.751
	c0.936,0.456,2.317,1.597,3.398,1.024c0.433-0.229,1.784-1.389,1.693-1.762c1.728-0.533,1.959-3.107,3.198-4.147
	c-0.1-0.113-0.145-0.385-0.235-0.492c1.055-0.094,1.657-0.945,2.362-1.634c-0.085-0.171-0.211-0.297-0.379-0.377
	c0.479,0.066,0.953,0.034,1.419-0.097c0.034-0.211-0.046-0.349-0.241-0.416c0.888-0.099,0.917,0.317,1.616,0.651
	c0.389,0.185,1.298,0.695,1.55,0.762c0.493,0.132,1.044,0.008,1.545,0.226c-0.016,0.13-0.04,0.259-0.069,0.387
	c0.23,0.294,0.52,0.477,0.893,0.511c0.113-0.006,1.058-0.012,0.97-0.011c0.672,0,1.344,0.001,2.016-0.002
	c0.307-0.257,0.672-0.409,1.066-0.498c-0.046-0.22,0.065-0.404,0.058-0.528c0.673,0.066,1.222-0.384,1.867-0.484
	c0.468-0.072,1.022,0.006,1.509,0.01c0.577-0.004,1.236-0.095,1.798,0.001c0.541,0.093,0.483,0.19,0.965,0.39
	c0.729,0.303,2.864,1.35,3.111,0.082c-0.18,0.26,0.485-0.011,0.767-0.084c0.595-0.154,0.84-0.404,1.62-0.389
	c1.829,0.037,4.034-0.816,5.623-0.123c0.705,0.307,1.333,0.67,2.002,0.998c0.871,0.427,1.213,0.953,1.987,1.513
	c0.637,0.461,1.569,0.787,2.279,1.235c0.863,0.545,1.46,1.115,2.609,0.9c0.94-0.175,2.149-0.636,3.026-1.024
	c0.826-0.366,2.014-1.249,3-1.036c0.923,0.199,1.363,0.983,2.474,1.047c1.007,0.059,1.798-0.2,2.635,0.353
	c0.562,0.372,1.011,1.177,1.24,1.748c0.191,0.475,0.197,0.969,0.476,1.415c0.393,0.627,1.105,0.829,1.549,1.461
	c0.964,1.373,1.197,4.165,3.6,3.408c0.925-0.291,2.085-1.116,2.637-1.883c0.804-1.116,1.839-1.936,2.763-3.038
	c1.376-1.64,2.527-1.952,4.598-1.974c1.253-0.014,1.222,0.204,2.113,0.887c0.814,0.625,1.833,0.529,2.777,0.722
	c0.781,0.16,1.501,0.683,2.5,0.287c1.027-0.407,1.766-1.751,2.611-2.423c1.602-1.272,4.409-1.951,6.387-1.363
	c0.776,0.231,1.226,0.787,2.101,0.899c0.966,0.123,2.034-0.026,3.01-0.013c1.168,0.015,1.59-0.221,2.49-0.974
	c0.901-0.753,1.967-2.732,2.986-3.06c0.777-0.25,2.191,0.035,3.026,0.036c1.03,0.001,2.106-0.198,3.024,0.365
	c1.435,0.88,2.698,2.032,4.076,3.026c0.378,0.273,0.964,0.298,1.4,0.584c0.424,0.278,0.997,0.818,1.4,1.161
	c0.527,0.448,0.937,1.039,1.464,1.488c1.638,1.396,3.949,1.777,6.024,1.263c0.952-0.236,1.664-0.958,2.248-1.778
	c0.649-0.91,1.556-1.438,2.263-2.219c1.294-1.429,2.066-4.145,4.625-3.415c0.74,0.211,1.587,0.833,2.361,1.149
	c0.678,0.276,1.499,0.812,2.125,1.252c0.555,0.389,1.016,1.221,1.587,1.524c0.842,0.447,2.327,0.124,3.037-0.263
	c0.766-0.418,1.375-0.996,2.363-1.163c0.604-0.102,2.519-0.221,3.036,0.102c0.821,0.512,0.349,1.815,0.829,2.56
	c0.58,0.9,1.626,1.071,2.635,0.89c0.996-0.178,2.016-0.702,2.889-1.165c0.752-0.399,1.536-0.681,2.248-1.237
	c1.312-1.025,2.717-2.609,4.365-3.011c2.43-0.593,2.79,0.802,4.484,2.024c0.652,0.47,1.363,0.95,2.016,1.361
	c0.971,0.612,1.834,0.496,2.998,0.502c0.442,0.002,1.101,0.128,1.526,0.026c0.453-0.109,0.495-0.443,0.948-0.552
	c0.354-0.085,1.175-0.036,1.537,0.014c0.464,0.065,0.771,0.33,1.1,0.4c0.696,0.149,2.121,0.383,2.789,0.012
	c0.298-0.166,0.401-0.634,0.699-0.801c0.422-0.236,1.433-0.205,1.9-0.124c1.005,0.174,2.006,0.84,3,1.147
	c0.904,0.279,1.654,0.503,2.474,0.877c1.031,0.47,1.91,0.5,3.026,0.5c1.511,0,1.781-0.181,2.988-1.002
	c0.971-0.66,1.819-1.216,2.9-1.619c1.01-0.377,1.919-0.374,3.111-0.379c1.055-0.005,1.733,0.052,2.611,0.379
	c1.201,0.447,2.158,1.189,3.387,1.621c0.968,0.341,1.304,0.964,2.102,1.4c0.582,0.319,2.731,0.299,3.312-0.012
	c0.709-0.379,0.518-0.769,1.601-0.9c1.101-0.133,1.727,0.397,2.608,0.9c1.335,0.763,3.319,1.743,4.769,1.498
	c0.233-0.039,0.783-0.337,1.138-0.399c0.461-0.08,1.056,0.011,1.514,0.012c0.956,0,1.983-0.131,2.911,0.096
	c-0.11,0.013,1.053,0.531,1.065,0.493c0.289,0.181,0.559,0.391,0.84,0.549c0.351,0.197,0.625,0.319,1.018,0.484
	c0.636,0.267,0.894,0.228,1.625,0.35c0.556,0.092,0.943,0.456,1.498,0.553c0.606,0.107,1.377-0.024,1.997-0.026
	c0.704-0.002,1.668,0,2.241,0c0.103,0,0.906,0,1.207,0c0.522,0,1.066,0.001,1.599-0.032
	C803.559,24.141,800.008,21.543,796.859,19.947z"/>
</svg>
